<?xml version="1.0" encoding="UTF-8"?>
<svg width="21px" height="19px" viewBox="0 0 21 19" version="1.1" xmlns="http://www.w3.org/2000/svg" xmlns:xlink="http://www.w3.org/1999/xlink">
    <!-- Generator: Sketch 52 (66869) - http://www.bohemiancoding.com/sketch -->
    <title>Calendar</title>
    <desc>Created with Sketch.</desc>
    <g id="ED-Page" stroke="none" stroke-width="1" fill="none" fill-rule="evenodd">
        <g id="Artboard---Desktop-1920px" transform="translate(-736.000000, -384.000000)" fill="#2F65BA" fill-rule="nonzero">
            <g id="date" transform="translate(736.000000, 384.000000)">
                <path d="M18.9249592,1.65023474 L16.9249592,1.65023474 L16.9249592,0.550078247 C16.9249592,0.247535211 16.6999592,0 16.4249592,0 C16.1499592,0 15.9249592,0.247535211 15.9249592,0.550078247 L15.9249592,1.65023474 L5.92495922,1.65023474 L5.92495922,0.550078247 C5.92495922,0.247535211 5.69995922,0 5.42495922,0 C5.14995922,0 4.92495922,0.247535211 4.92495922,0.550078247 L4.92495922,1.65023474 L2.92495922,1.65023474 C1.82495922,1.65023474 0.924959217,2.64037559 0.924959217,3.85054773 L0.924959217,15.9522692 C0.924959217,17.1624413 1.82495922,18.1525822 2.92495922,18.1525822 L18.9249592,18.1525822 C20.0249592,18.1525822 20.9249592,17.1624413 20.9249592,15.9522692 L20.9249592,3.85054773 C20.9249592,2.64037559 20.0249592,1.65023474 18.9249592,1.65023474 Z M19.9249592,15.9522692 C19.9249592,16.5573552 19.4749592,17.0524257 18.9249592,17.0524257 L2.92495922,17.0524257 C2.37495922,17.0524257 1.92495922,16.5573552 1.92495922,15.9522692 L1.92495922,7.70109546 L19.9249592,7.70109546 L19.9249592,15.9522692 Z M19.9249592,6.60093897 L1.92495922,6.60093897 L1.92495922,3.85054773 C1.92495922,3.24546166 2.37495922,2.75039124 2.92495922,2.75039124 L4.92495922,2.75039124 L4.92495922,4.40062598 C4.92495922,4.70316901 5.14995922,4.95070423 5.42495922,4.95070423 C5.69995922,4.95070423 5.92495922,4.70316901 5.92495922,4.40062598 L5.92495922,2.75039124 L15.9249592,2.75039124 L15.9249592,4.40062598 C15.9249592,4.70316901 16.1499592,4.95070423 16.4249592,4.95070423 C16.6999592,4.95070423 16.9249592,4.70316901 16.9249592,4.40062598 L16.9249592,2.75039124 L18.9249592,2.75039124 C19.4749592,2.75039124 19.9249592,3.24546166 19.9249592,3.85054773 L19.9249592,6.60093897 Z" id="Calendar"></path>
            </g>
        </g>
    </g>
</svg>