<?xml version="1.0" encoding="UTF-8"?>
<svg width="50px" height="50px" viewBox="0 0 50 50" version="1.1" xmlns="http://www.w3.org/2000/svg" xmlns:xlink="http://www.w3.org/1999/xlink">
    <!-- Generator: Sketch 50.2 (55047) - http://www.bohemiancoding.com/sketch -->
    <title>icon-facebook</title>
    <desc>Created with Sketch.</desc>
    <defs>
        <polygon id="path-1" points="0 0 49.652 0 49.652 49.6518 0 49.6518"></polygon>
    </defs>
    <g id="Page-1" stroke="none" stroke-width="1" fill="none" fill-rule="evenodd">
        <g id="desktop-view-main-page-vr-1" transform="translate(-1080.000000, -1112.000000)">
            <g id="social-media-section" transform="translate(730.000000, 1041.000000)">
                <g id="icon-facebook" transform="translate(350.000000, 71.000000)">
                    <mask id="mask-2" fill="white">
                        <use xlink:href="#path-1"></use>
                    </mask>
                    <g id="Clip-2"></g>
                    <path d="M31,25.6998 L26.961,25.6998 L26.961,40.0958 L20.976,40.0958 L20.976,25.6998 L18.131,25.6998 L18.131,20.6118 L20.976,20.6118 L20.976,17.3208 C20.976,14.9638 22.096,11.2808 27.016,11.2808 L31.451,11.2978 L31.451,16.2368 L28.232,16.2368 C27.708,16.2368 26.963,16.4988 26.963,17.6228 L26.963,20.6128 L31.523,20.6128 L31,25.6998 Z M24.826,-0.0002 C11.137,-0.0002 0,11.1368 0,24.8258 C0,38.5138 11.137,49.6518 24.826,49.6518 C38.514,49.6518 49.652,38.5138 49.652,24.8258 C49.652,11.1368 38.516,-0.0002 24.826,-0.0002 Z" id="Fill-1" fill="#2F65BA" mask="url(#mask-2)"></path>
                </g>
            </g>
        </g>
    </g>
</svg>