<?xml version="1.0" encoding="UTF-8"?>
<svg width="48px" height="48px" viewBox="0 0 48 48" version="1.1" xmlns="http://www.w3.org/2000/svg" xmlns:xlink="http://www.w3.org/1999/xlink">
    <!-- Generator: Sketch 50.2 (55047) - http://www.bohemiancoding.com/sketch -->
    <title>icon-youtube</title>
    <desc>Created with Sketch.</desc>
    <defs>
        <polygon id="path-1" points="0 0.122497959 47.8774531 0.122497959 47.8774531 48 0 48"></polygon>
    </defs>
    <g id="Symbols" stroke="none" stroke-width="1" fill="none" fill-rule="evenodd">
        <g id="icon-youtube">
            <g>
                <path d="M20,29 C23.6768607,27.1670683 27.3216353,25.3514875 31,23.5175919 C27.3106057,21.6668273 23.6668338,19.8401612 20,18 L20,29 Z" id="Fill-1" fill="#2F65BA"></path>
                <g id="Group-5">
                    <mask id="mask-2" fill="white">
                        <use xlink:href="#path-1"></use>
                    </mask>
                    <g id="Clip-4"></g>
                    <path d="M40.2493714,32.0518041 C39.8350041,33.8493551 38.3646367,35.1752327 36.5950041,35.3726204 C32.4038204,35.8413551 28.1621878,35.8438041 23.937698,35.8413551 C19.7132082,35.8438041 15.4705959,35.8413551 11.2784327,35.3726204 C9.5088,35.1752327 8.03941224,33.8493551 7.62602449,32.0518041 C7.0368,29.4906612 7.0368,26.6968653 7.0368,24.0612735 C7.0368,21.4256816 7.04365714,18.6304163 7.63288163,16.0707429 C8.04626939,14.2731918 9.51565714,12.9468245 11.2852898,12.7489469 C15.4774531,12.280702 19.7200653,12.2782531 23.9445551,12.280702 C28.1680653,12.2782531 32.4106776,12.280702 36.6013714,12.7489469 C38.3719837,12.9468245 39.842351,14.272702 40.2562286,16.0707429 C40.8449633,18.6309061 40.8400653,21.4256816 40.8400653,24.0612735 C40.8400653,26.6968653 40.8385959,29.491151 40.2493714,32.0518041 M23.9386776,0.122497959 C10.7181061,0.122497959 -9.79591837e-05,10.8402122 -9.79591837e-05,24.0612735 C-9.79591837e-05,37.2823347 10.7181061,48.000049 23.9386776,48.000049 C37.159249,48.000049 47.8774531,37.2823347 47.8774531,24.0612735 C47.8774531,10.8402122 37.159249,0.122497959 23.9386776,0.122497959" id="Fill-3" fill="#2F65BA" mask="url(#mask-2)"></path>
                </g>
            </g>
        </g>
    </g>
</svg>