<?xml version="1.0" encoding="UTF-8"?>
<svg width="50px" height="50px" viewBox="0 0 50 50" version="1.1" xmlns="http://www.w3.org/2000/svg" xmlns:xlink="http://www.w3.org/1999/xlink">
    <!-- Generator: Sketch 50.2 (55047) - http://www.bohemiancoding.com/sketch -->
    <title>icon-linked</title>
    <desc>Created with Sketch.</desc>
    <defs>
        <polygon id="path-1" points="0 49.652 49.652 49.652 49.652 0 0 0"></polygon>
    </defs>
    <g id="Symbols" stroke="none" stroke-width="1" fill="none" fill-rule="evenodd">
        <g id="icon-linked">
            <g>
                <path d="M25.7422,23.3278 L25.7172,23.3278 C25.7252,23.3138 25.7372,23.3008 25.7422,23.2868 L25.7422,23.3278 Z M29.3492,21.2978 C27.2242,21.2978 26.2762,22.4658 25.7452,23.2858 L25.7452,21.5818 L21.7432,21.5818 C21.7952,22.7098 21.7432,33.6228 21.7432,33.6228 L25.7452,33.6228 L25.7452,26.8958 C25.7452,26.5368 25.7682,26.1758 25.8762,25.9188 C26.1662,25.1988 26.8242,24.4538 27.9302,24.4538 C29.3782,24.4538 29.9572,25.5578 29.9572,27.1788 L29.9572,33.6198 L33.9592,33.6198 L33.9602,33.6198 L33.9602,26.7158 C33.9582,23.0188 31.9832,21.2978 29.3492,21.2978 Z" id="Fill-1" fill="#2F65BA"></path>
                <mask id="mask-2" fill="white">
                    <use xlink:href="#path-1"></use>
                </mask>
                <g id="Clip-4"></g>
                <polygon id="Fill-3" fill="#2F65BA" mask="url(#mask-2)" points="15.523 33.623 19.525 33.623 19.525 21.582 15.523 21.582"></polygon>
                <path d="M37.9912,36.0553 C37.9912,37.1113 37.1152,37.9653 36.0322,37.9653 L13.4512,37.9653 C12.3712,37.9653 11.4942,37.1113 11.4942,36.0553 L11.4942,13.2113 C11.4942,12.1563 12.3712,11.3013 13.4512,11.3013 L36.0322,11.3013 C37.1142,11.3013 37.9912,12.1573 37.9912,13.2113 L37.9912,36.0553 Z M24.8262,0.0003 C11.1372,0.0003 0.0002,11.1373 0.0002,24.8263 C0.0002,38.5143 11.1372,49.6523 24.8262,49.6523 C38.5132,49.6523 49.6522,38.5143 49.6522,24.8263 C49.6522,11.1373 38.5152,0.0003 24.8262,0.0003 Z" id="Fill-5" fill="#2F65BA" mask="url(#mask-2)"></path>
                <path d="M17.5508,15.777 C16.1828,15.777 15.2868,16.675 15.2868,17.857 C15.2868,19.012 16.1558,19.937 17.4978,19.937 L17.5238,19.937 C18.9198,19.937 19.7888,19.012 19.7888,17.857 C19.7618,16.676 18.9208,15.777 17.5508,15.777" id="Fill-6" fill="#2F65BA" mask="url(#mask-2)"></path>
            </g>
        </g>
    </g>
</svg>