<?xml version="1.0" encoding="UTF-8"?>
<svg width="50px" height="50px" viewBox="0 0 50 50" version="1.1" xmlns="http://www.w3.org/2000/svg" xmlns:xlink="http://www.w3.org/1999/xlink">
    <!-- Generator: Sketch 50.2 (55047) - http://www.bohemiancoding.com/sketch -->
    <title>icon-twitter</title>
    <desc>Created with Sketch.</desc>
    <defs>
        <polygon id="path-1" points="0.0004 0.0002 49.652 0.0002 49.652 49.652 0.0004 49.652"></polygon>
    </defs>
    <g id="Symbols" stroke="none" stroke-width="1" fill="none" fill-rule="evenodd">
        <g id="icon-twitter">
            <g>
                <mask id="mask-2" fill="white">
                    <use xlink:href="#path-1"></use>
                </mask>
                <g id="Clip-2"></g>
                <path d="M35.9014,19.1442 C35.9124,19.3902 35.9184,19.6382 35.9184,19.8862 C35.9184,27.4372 30.1724,36.1412 19.6594,36.1412 C16.4324,36.1412 13.4284,35.1982 10.9004,33.5762 C11.3474,33.6282 11.8014,33.6562 12.2634,33.6562 C14.9414,33.6562 17.4034,32.7422 19.3594,31.2092 C16.8594,31.1642 14.7494,29.5122 14.0224,27.2412 C14.3704,27.3072 14.7294,27.3442 15.0964,27.3442 C15.6174,27.3442 16.1234,27.2762 16.6024,27.1452 C13.9874,26.6212 12.0194,24.3122 12.0194,21.5422 C12.0194,21.5182 12.0194,21.4932 12.0204,21.4702 C12.7904,21.8972 13.6714,22.1552 14.6074,22.1842 C13.0754,21.1612 12.0664,19.4112 12.0664,17.4292 C12.0664,16.3812 12.3474,15.3992 12.8394,14.5552 C15.6554,18.0132 19.8684,20.2872 24.6164,20.5272 C24.5184,20.1082 24.4694,19.6732 24.4694,19.2242 C24.4694,16.0692 27.0274,13.5102 30.1814,13.5102 C31.8264,13.5102 33.3084,14.2042 34.3524,15.3142 C35.6564,15.0582 36.8764,14.5842 37.9834,13.9272 C37.5524,15.2622 36.6504,16.3812 35.4664,17.0892 C36.6244,16.9512 37.7274,16.6452 38.7494,16.1902 C37.9874,17.3342 37.0174,18.3412 35.9014,19.1442 M24.8264,0.0002 C11.1374,0.0002 0.0004,11.1372 0.0004,24.8262 C0.0004,38.5142 11.1374,49.6522 24.8264,49.6522 C38.5134,49.6522 49.6524,38.5142 49.6524,24.8262 C49.6524,11.1372 38.5154,0.0002 24.8264,0.0002" id="Fill-1" fill="#2F65BA" mask="url(#mask-2)"></path>
            </g>
        </g>
    </g>
</svg>