<?xml version="1.0" encoding="UTF-8"?>
<svg width="47px" height="47px" viewBox="0 0 47 47" version="1.1" xmlns="http://www.w3.org/2000/svg" xmlns:xlink="http://www.w3.org/1999/xlink">
    <!-- Generator: Sketch 50.2 (55047) - http://www.bohemiancoding.com/sketch -->
    <title>icon-instagram</title>
    <desc>Created with Sketch.</desc>
    <defs></defs>
    <g id="Symbols" stroke="none" stroke-width="1" fill="none" fill-rule="evenodd">
        <g id="icon-instagram" fill="#2F65BA">
            <g>
                <path d="M23.4994342,28 C25.9800075,28 28,25.9835199 28,23.4983017 C28,22.5200654 27.6820068,21.6142911 27.1512637,20.8749528 C26.3330819,19.7427349 25.0033949,19 23.4994342,19 C22.0011316,19 20.6703131,19.7382061 19.8532629,20.8749528 C19.3179932,21.6142911 19.0045266,22.5200654 19,23.4983017 C19,25.9835199 21.0199925,28 23.4994342,28" id="Fill-1"></path>
                <polygon id="Fill-3" points="34 17.984375 34 13 33.3475992 13 29 13.015625 29.0208768 18"></polygon>
                <path d="M36.8645083,20.7567656 L36.8645083,31.7013065 C36.8645083,34.5492536 34.5489401,36.8647635 31.6973717,36.8647635 L15.2990786,36.8647635 C12.4510599,36.8647635 10.1354917,34.5492536 10.1354917,31.7013065 L10.1354917,15.3034262 C10.1354917,12.4519296 12.4510599,10.1364197 15.2990786,10.1364197 L31.6973717,10.1364197 C34.5489401,10.1364197 36.8645083,12.4519296 36.8645083,15.3034262 L36.8645083,20.7567656 Z M23.4976336,0 C10.5425205,0 0,10.5434383 0,23.4982252 C0,36.4577449 10.5425205,47 23.4976336,47 C36.4562963,47 47,36.4577449 47,23.4982252 C47,10.5434383 36.4562963,0 23.4976336,0 Z" id="Fill-5"></path>
                <path d="M30.6352889,23.639646 C30.6352889,27.5199369 27.4368505,30.6790816 23.4994227,30.6790816 C19.5666135,30.6790816 16.3693297,27.5199369 16.3693297,23.639646 C16.3693297,22.7088774 16.5586958,21.8145649 16.8923957,21 L13,21 L13,31.5380773 C13,32.9006222 14.1177214,34 15.4987079,34 L31.5012921,34 C32.8811239,34 34,32.9006222 34,31.5380773 L34,21 L30.1076043,21 C30.4413042,21.8145649 30.6352889,22.7088774 30.6352889,23.639646" id="Fill-7"></path>
            </g>
        </g>
    </g>
</svg>